<?xml version="1.0" encoding="utf-8"?>
<!-- Generator: Adobe Illustrator 21.0.0, SVG Export Plug-In . SVG Version: 6.00 Build 0)  -->
<!DOCTYPE svg PUBLIC "-//W3C//DTD SVG 1.1 Basic//EN" "http://www.w3.org/Graphics/SVG/1.1/DTD/svg11-basic.dtd">
<svg version="1.1" baseProfile="basic" xmlns="http://www.w3.org/2000/svg" xmlns:xlink="http://www.w3.org/1999/xlink" x="0px"
	 y="0px" viewBox="0 0 612 792" xml:space="preserve">
<g id="Layer_1" display="none">
	<polygon fill="#ED1F24" points="223,344.6 196.1,344.6 196.1,317.8 178.5,317.8 178.5,344.6 151.6,344.6 151.6,362.3 178.5,362.3 
		178.5,389.2 196.1,389.2 196.1,362.3 223,362.3 	"/>
	<polygon display="inline" points="377.4,344.6 350.5,344.6 350.5,317.8 332.9,317.8 332.9,344.6 306,344.6 306,362.3 332.9,362.3 
		332.9,389.2 350.5,389.2 350.5,362.3 377.4,362.3 	"/>
	<rect x="252.4" y="264.2" display="inline" opacity="0" fill="#FFFFFF" width="178.6" height="178.6"/>
</g>
<g id="Layer_1_copy">
	<rect x="252.4" y="264.2" opacity="0" fill="#FFFFFF" width="178.6" height="178.6"/>
	<polygon display="none" fill="#ED1F24" points="223,344.6 196.1,344.6 196.1,317.8 178.5,317.8 178.5,344.6 151.6,344.6 
		151.6,362.3 178.5,362.3 178.5,389.2 196.1,389.2 196.1,362.3 223,362.3 	"/>
	<polygon fill="#FFFFFF" points="377.4,344.6 350.5,344.6 350.5,317.8 332.9,317.8 332.9,344.6 306,344.6 306,362.3 332.9,362.3 
		332.9,389.2 350.5,389.2 350.5,362.3 377.4,362.3 	"/>
</g>
</svg>
