<?xml version="1.0" encoding="utf-8"?>
<!-- Generator: Adobe Illustrator 22.0.0, SVG Export Plug-In . SVG Version: 6.00 Build 0)  -->
<!DOCTYPE svg PUBLIC "-//W3C//DTD SVG 1.1 Basic//EN" "http://www.w3.org/Graphics/SVG/1.1/DTD/svg11-basic.dtd">
<svg version="1.1" baseProfile="basic" id="Layer_1"
	 xmlns="http://www.w3.org/2000/svg" xmlns:xlink="http://www.w3.org/1999/xlink" x="0px" y="0px" viewBox="0 0 750 750"
	 xml:space="preserve">
<path d="M219.8,346.8c-0.3-0.3-6.8-8.2-17.3-16.1c-13.4-10.1-27.3-15.7-40.3-16.2c-0.7,0-1.3-0.1-2-0.1s-1.3,0-2,0.1
	c-13,0.5-26.9,6.1-40.3,16.2c-10.5,7.9-17,15.8-17.3,16.1l-1.6,1.9l1.6,1.9c0.3,0.3,6.8,8.2,17.3,16.1
	c14.1,10.6,28.7,16.2,42.3,16.2c13.6,0,28.2-5.6,42.3-16.2c10.5-7.9,17-15.8,17.3-16.1l1.6-1.9L219.8,346.8z M145.5,325.9
	c-2.8,3.4-4.6,7.7-4.6,12.5c0,10.7,8.7,19.3,19.3,19.3s19.3-8.7,19.3-19.3c0-4.8-1.7-9.1-4.6-12.5c4.9,4.2,8,10.4,8,17.3
	c0,12.5-10.2,22.8-22.8,22.8s-22.8-10.2-22.8-22.8C137.5,336.3,140.6,330.1,145.5,325.9z M160.3,377c-25.4,0-47.2-21.7-53.2-28.3
	c4.1-4.5,15.4-15.9,30.2-22.7c-3.6,4.8-5.7,10.7-5.7,17.2c0,15.9,12.9,28.8,28.8,28.8S189,359,189,343.2c0-6.4-2.1-12.4-5.7-17.2
	c14.8,6.9,26.1,18.2,30.2,22.7C207.4,355.4,185.7,377,160.3,377z"/>
</svg>
