<?xml version="1.0" encoding="utf-8"?>
<!-- Generator: Adobe Illustrator 21.1.0, SVG Export Plug-In . SVG Version: 6.00 Build 0)  -->
<svg version="1.1" id="Layer_1" xmlns="http://www.w3.org/2000/svg" xmlns:xlink="http://www.w3.org/1999/xlink" x="0px" y="0px"
	 viewBox="0 0 1024 1024" style="enable-background:new 0 0 1024 1024;" xml:space="preserve">
<style type="text/css">
	.st0{fill:#FFFFFF;}
	.st1{fill:#525252;}
	.st2{fill:#C50047;}
	.st3{fill:#404040;}
	.st4{fill:#AB003E;}
</style>
<g>
	<circle class="st0" cx="512" cy="512" r="350"/>
</g>
<g>
	<path class="st1" d="M571.2,691.6h-9.7c-1.9,0-3.3-0.3-4-1c-0.7-0.6-1.1-1.9-1.1-3.9v-16.7c0-3.4,1.7-5.1,5.1-5.1h9.7
		c1.8,0,2.7-0.9,2.7-2.7v-24.4c0-3.4,1.8-5.1,5.3-5.1h20.3c3.4,0,5.1,1.7,5.1,5.1v24.4c0,1.8,1,2.7,2.9,2.7h18.9
		c3.4,0,5.1,1.7,5.1,5.1v16.7c0,1.8-0.4,3-1.1,3.7c-0.7,0.7-2.1,1.1-4,1.1h-18.9c-1.9,0-2.9,0.9-2.9,2.7V738c0,5,1.1,8.6,3.4,10.8
		c2.3,2.2,6,3.3,11.1,3.3h9.7c3.4,0,5.1,1.7,5.1,5.1v16.7c0,1.8-0.4,3-1.1,3.8c-0.7,0.7-2.1,1.1-4,1.1H614
		c-12.7,0-22.6-3.4-29.6-10.2c-7-6.8-10.5-16.5-10.5-29v-45.2C573.9,692.5,573,691.6,571.2,691.6z M415.8,778.7h-20.6
		c-3.4,0-5.1-1.7-5.1-5.1V627.4c0-3.4,1.7-5.5,5.1-6.4l20.6-5.5c3.4-0.9,5.1,0.3,5.1,3.7v78.9l44.8-60.2c2.1-3.4,5.2-5.1,9.4-5.1
		h23.7c1.8,0,2.9,0.5,3.3,1.6c0.4,1.1,0,2.4-1.3,4l-46,59.8l51.3,74.5c1.1,1.9,1.3,3.4,0.6,4.5c-0.7,1.1-2.2,1.6-4.5,1.6h-17.7
		c-5.6,0-9.4-1.7-11.4-5.1l-37-53.4l-15.2,17.9v35.5C420.8,777,419.2,778.7,415.8,778.7z M519,778.7h20.8c1.8,0,3-0.3,3.8-1
		c0.7-0.6,1.1-2,1.1-4.1V670.1c0-3.4-1.7-5.1-5.1-5.1h-20.8c-3.2,0-4.8,1.7-4.8,5.1v103.5C513.9,777,515.6,778.7,519,778.7z"/>
	<path class="st2" d="M513.9,641.1V620c0-3.2,1.6-4.8,4.8-4.8h21.1c3.2,0,4.8,1.5,4.8,4.6v21.3c0,3.2-1.6,4.8-4.8,4.8h-21.1
		C515.5,645.9,513.9,644.3,513.9,641.1z"/>
</g>
<path class="st2" d="M355.5,569.9c6.9-6.9,10.4-16.6,10.4-29.1v-35.6c0-3.7-1.9-5.6-5.6-5.6H318c-3.4,0-5.1,1.7-5.1,5.1v16.4
	c0,3.4,1.7,5.1,5.1,5.1h14.5c1.8,0,2.7,0.9,2.7,2.7v10.4c0,5.2-1.1,8.8-3.1,11c-2.1,2.2-5.7,3.3-10.9,3.3h-15.7
	c-5,0-8.6-1.1-10.8-3.3c-2.2-2.2-3.3-5.8-3.3-11v-64.1c0-5.2,1.1-8.8,3.3-11c2.2-2.2,5.8-3.3,10.8-3.3h15.7c5.2,0,8.8,1.1,10.9,3.3
	c2.1,2.2,3.1,5.8,3.1,11v5.8c0,3.6,1.7,5.3,5.1,5.3h20.6c3.4,0,5.1-1.8,5.1-5.3v-7.3c0-12.6-3.5-22.3-10.4-29.1
	c-6.9-6.9-16.7-10.3-29.3-10.3h-25.6c-12.7,0-22.6,3.4-29.5,10.2c-6.9,6.8-10.4,16.5-10.4,29.3v67c0,12.7,3.5,22.5,10.4,29.3
	c6.9,6.8,16.8,10.2,29.5,10.2h25.6C338.8,580.2,348.6,576.8,355.5,569.9z M761.7,579.1c0.7-0.7,1.1-2,1.1-3.7v-16
	c0-3.5-1.7-5.3-5.1-5.3h-48.8c-5.2,0-8.8-1.1-11-3.3c-2.2-2.2-3.3-5.8-3.3-10.8v-0.5c0-1.8,1-2.7,2.9-2.7h60.7
	c3.4,0,5.1-1.7,5.1-5.1v-25.9c0-12.7-3.5-22.5-10.4-29.3c-6.9-6.8-16.8-10.2-29.5-10.2h-19.1c-12.7,0-22.6,3.4-29.5,10.2
	c-6.9,6.8-10.4,16.5-10.4,29.3v34.8c0,12.7,3.5,22.5,10.4,29.3c6.9,6.8,16.8,10.2,29.5,10.2h53.4C759.7,580.2,761,579.8,761.7,579.1
	z M694.8,513.7v-6.8c0-5.2,1-8.8,3.1-10.9c2.1-2.1,5.7-3.1,10.9-3.1H719c5.2,0,8.8,1.1,10.9,3.1c2.1,2.1,3.1,5.7,3.1,10.9v6.8
	c0,1.8-0.9,2.7-2.7,2.7h-32.9C695.7,516.3,694.8,515.5,694.8,513.7z M473.5,580.2c3.5,0,5.3-1.7,5.3-5.1V471.6
	c0-3.4-1.8-5.1-5.3-5.1h-55.9c-12.7,0-22.6,3.4-29.5,10.2c-6.9,6.8-10.4,16.5-10.4,29.3v34.8c0,12.7,3.5,22.5,10.4,29.3
	c6.9,6.8,16.8,10.2,29.5,10.2H473.5z M448.2,495.8v15.7v23.7v15.7c0,1.8-1,2.7-2.9,2.7h-13.8h-8.9c-1.3,0-2.5-0.1-3.6-0.2
	c-3.3-0.4-5.7-1.4-7.3-3.1c-2.1-2.2-3.1-5.8-3.1-11v-31.9c0-5.2,1-8.8,3.1-11c1.6-1.6,4-2.6,7.3-3.1c1.1-0.1,2.3-0.2,3.6-0.2h8.9
	h13.8C447.2,493.1,448.2,494,448.2,495.8z M643,476.7c-6.4-6.8-15.8-10.2-28.2-10.2H594c-9.1,0-16.5,1.8-22.4,5.5
	c-5.8-3.6-13.3-5.5-22.4-5.5h-20.8c-12.4,0-21.8,3.4-28.2,10.2c-6.4,6.8-9.5,16.5-9.5,29.3v69.2c0,3.4,1.7,5.1,5.1,5.1h20.6
	c3.4,0,5.1-1.7,5.1-5.1v-67.7c0-5.2,1.1-8.8,3.3-11c2.2-2.2,5.8-3.3,10.8-3.3h6.8c5,0,8.6,1.1,10.8,3.3c2.2,2.2,3.3,5.8,3.3,11v67.7
	c0,3.4,1.7,5.1,5.1,5.1h0h20.6h0c3.4,0,5.1-1.7,5.1-5.1v-67.7c0-5.2,1.1-8.8,3.3-11c2.2-2.2,5.8-3.3,10.8-3.3h6.8
	c5,0,8.6,1.1,10.8,3.3c2.2,2.2,3.3,5.8,3.3,11v67.7c0,3.4,1.7,5.1,5.1,5.1h20.6c3.4,0,5.1-1.7,5.1-5.1v-69.2
	C652.5,493.2,649.3,483.4,643,476.7z"/>
<path class="st3" d="M367.3,390.1c0.7-0.7,1.3-2.1,1.6-4l6.8-21.5h47.2l6.8,21.5c0.3,1.9,0.8,3.3,1.5,4c0.6,0.7,1.9,1.1,3.6,1.1
	h23.2c2.9,0,3.9-1.7,2.9-5.1l-38.2-135.7c-0.8-3.4-3.2-5.1-7.3-5.1h-32.2c-3.7,0-6.1,1.7-7.3,5.1l-38.2,135.7c-1,3.4,0,5.1,2.9,5.1
	h23.2C365.4,391.2,366.6,390.8,367.3,390.1z M399.9,276l17.4,65.6h-35.8l17.4-65.6H399.9z M573.8,316.9v34.8
	c0,12.7-3.5,22.5-10.4,29.3c-6.9,6.8-16.8,10.2-29.5,10.2h-30.5v53.7c0,3.2-1.7,5.3-5.1,6.2l-20.6,5.5c-3.4,0.9-5.1-0.2-5.1-3.5v-67
	v-9.4v-94.1c0-3.4,1.8-5.1,5.3-5.1h55.9c12.7,0,22.6,3.4,29.5,10.2C570.3,294.4,573.8,304.2,573.8,316.9z M543.1,318.3
	c0-5.2-1-8.8-3.1-11c-1.6-1.6-4-2.6-7.3-3.1c-1.1-0.1-2.3-0.2-3.6-0.2h-8.9h-13.8c-1.9,0-2.9,0.9-2.9,2.7v15.7v23.7v15.7
	c0,1.8,1,2.7,2.9,2.7h13.8h8.9c1.3,0,2.5-0.1,3.6-0.2c3.3-0.4,5.7-1.4,7.3-3.1c2.1-2.2,3.1-5.8,3.1-11V318.3z M686.7,316.9v34.8
	c0,12.7-3.5,22.5-10.4,29.3c-6.9,6.8-16.8,10.2-29.5,10.2h-30.5v23.4c0,3.2-1.7,5.3-5.1,6.2l-20.6,5.5c-3.4,0.9-5.1-0.2-5.1-3.5
	v-36.7v-9.4v-94.1c0-3.4,1.8-5.1,5.3-5.1h55.9c12.7,0,22.6,3.4,29.5,10.2C683.2,294.4,686.7,304.2,686.7,316.9z M656,318.3
	c0-5.2-1-8.8-3.1-11c-1.6-1.6-4-2.6-7.3-3.1c-1.1-0.1-2.3-0.2-3.6-0.2H633h-13.8c-1.9,0-2.9,0.9-2.9,2.7v15.7v23.7v15.7
	c0,1.8,1,2.7,2.9,2.7H633h8.9c1.3,0,2.5-0.1,3.6-0.2c3.3-0.4,5.7-1.4,7.3-3.1c2.1-2.2,3.1-5.8,3.1-11V318.3z"/>
<g>
	<g>
		<path class="st4" d="M512,2C230.3,2,2,230.3,2,512s228.3,510,510,510c281.7,0,510-228.3,510-510S793.7,2,512,2z M512,857.1
			c-190.6,0-345.1-154.5-345.1-345.1S321.4,166.9,512,166.9c190.6,0,345.1,154.5,345.1,345.1S702.6,857.1,512,857.1z"/>
	</g>
</g>
<g>
	<path class="st0" d="M219.4,271.8l-61.1-63l12.6-12.2l43.8,8.7l-7.3-44l12.6-12.2l61.1,63l-11.3,11l-45.2-46.6l7.6,46.7l-46.5-9
		l45.2,46.6L219.4,271.8z"/>
	<path class="st0" d="M284.4,209.3L269.9,116l15-8.8l74.5,58l-14.6,8.6l-17.7-14.2l-32,18.8l3.8,22.3L284.4,209.3z M292.6,163.4
		l22.6-13.3l-28.7-23.1L292.6,163.4z"/>
	<path class="st0" d="M364.5,164.1l-26.7-83.6l28.8-9.2c12.9-4.1,23.9-3.7,32.9,1.2c9,5,15.6,14.3,20,28c4.4,13.6,4.3,25.1-0.1,34.3
		c-4.4,9.2-13.1,15.9-26.1,20.1L364.5,164.1z M375.2,145.7l13.8-4.4c8.7-2.8,14.2-7,16.6-12.6c2.4-5.6,2-13.4-1.2-23.4
		c-3.2-10.1-7.4-16.7-12.7-19.9c-5.2-3.2-12.2-3.4-20.9-0.6l-13.8,4.4L375.2,145.7z"/>
	<path class="st0" d="M442.6,141.2L432.9,54l58-6.4l1.6,14.1l-42.3,4.7l2.5,22.1l36.7-4.1l1.6,14.8l-36.7,4.1l2.5,22.1l42.3-4.7
		l1.6,14.1L442.6,141.2z"/>
	<path class="st0" d="M560.7,46.2l15.3,3.8l3.8,69l36.4-59.2l13.3,3.3l4.9,67l34.2-57.4l15.3,3.8l-48.2,78.6l-14.6-3.6l-4.5-64.2
		L583,142l-15.8-3.9L560.7,46.2z"/>
	<path class="st0" d="M667,169l37.9-79.2l14.3,6.8l-37.9,79.2L667,169z"/>
	<path class="st0" d="M729.6,118.5l8.8-13.2l59.9,39.9l-8.8,13.2l-23.4-15.6l-39.9,59.9l-13.2-8.8L753,134L729.6,118.5z"/>
	<path class="st0" d="M754.9,222.6l62.5-61.6l11.1,11.3l-26,25.6l26.1,26.5l26-25.6l11.1,11.3l-62.5,61.6l-11.1-11.3l26-25.6
		l-26.1-26.5l-26,25.6L754.9,222.6z"/>
</g>
<g>
	<path class="st0" d="M120.3,704.1c1.1-0.6,2.2-1.1,3.5-1.6c1.2-0.4,3-0.7,5.1-0.8c2.2-0.1,4.4,0.3,6.5,1.1c2.1,0.8,4.5,2.4,7.1,4.9
		c2.6,2.5,5.1,5.7,7.4,9.8c1.6,2.9,3.2,6.1,4.6,9.7c6.7-3.8,8-9.5,3.7-16.9c-3.4-6-7.2-10.6-11.5-14l10.4-5.9
		c4.6,3.9,8.5,8.8,11.9,14.7c4.3,7.5,5.7,14.4,4.1,20.6c-1.6,6.2-6,11.3-13.3,15.5l-14.3,8.1c-4.9,2.8-10.1,3.3-15.6,1.7
		c-5.6-1.6-10.5-6.2-14.8-13.8c-4.4-7.8-6-14.5-4.5-20.2C112.1,711.3,115.3,707,120.3,704.1z M129.2,715.9
		c-5.7,3.2-6.6,8.1-2.8,14.8c0,0,0,0.1,0.1,0.1c3.6,6.3,8.1,8,13.4,4.9l6.7-3.8c-1.3-3.2-2.5-5.8-3.6-8
		C138.3,716,133.8,713.4,129.2,715.9z"/>
	<path class="st0" d="M123.5,791.2l49.6-39.9c4.4-3.5,9.4-4.9,15.2-4.1c5.8,0.7,11.4,4.5,16.8,11.3c1.3,1.6,2.4,3.2,3.4,5
		c1,1.8,1.8,4.1,2.5,7.1c0.6,3,0.7,5.9,0.3,8.7c-0.5,2.8-1.9,6.1-4.2,9.8c-2.3,3.7-5.6,7.3-9.9,10.7c-7.8,6.2-15.2,9.1-22.4,8.7
		c-7.2-0.4-13.6-4.2-19.3-11.2c-2.1-2.7-3.9-5.5-5.4-8.5l-17.4,14L123.5,791.2z M158.7,781.7c1.7,2.9,3.4,5.4,5.1,7.4
		c3,3.7,6.3,5.6,10,5.8c3.7,0.2,8.3-1.9,13.7-6.2c5.6-4.5,9-8.4,10.3-11.9c1.3-3.4,0.5-7-2.4-10.6c-4.6-5.7-8.6-7.2-12-4.4
		L158.7,781.7z"/>
	<path class="st0" d="M173.6,850l42.7-47.2c3.7-4.1,8.5-6.3,14.3-6.5c5.8-0.2,11.9,2.6,18.4,8.5c1.5,1.3,2.9,2.8,4.1,4.4
		c1.3,1.6,2.4,3.8,3.6,6.6c1.1,2.8,1.7,5.7,1.7,8.5c0,2.9-0.9,6.3-2.6,10.4c-1.7,4-4.4,8.1-8,12.1c-6.7,7.4-13.6,11.4-20.8,12.1
		c-7.2,0.7-14.1-2-20.8-8c-2.5-2.3-4.8-4.8-6.7-7.5l-15,16.6L173.6,850z M206.8,835.1c2.2,2.6,4.2,4.8,6.2,6.5
		c3.5,3.2,7.1,4.6,10.8,4.2c3.7-0.4,7.9-3.2,12.5-8.3c4.8-5.3,7.5-9.7,8.3-13.3c0.7-3.6-0.6-7-4-10.1c-5.4-4.9-9.6-5.7-12.5-2.5
		L206.8,835.1z"/>
	<path class="st0" d="M261.3,855.7c2.9-4.5,6-8.1,9.3-10.7c3.3-2.6,6.4-4.3,9.1-5c2.7-0.7,5.6-1,8.4-0.7c2.9,0.3,5.2,0.8,7,1.6
		c1.8,0.8,3.5,1.7,5.2,2.7c7.2,4.6,11.4,9.6,12.7,15.1c1.3,5.4,0.4,10.5-2.6,15.2l-23.4,36.4c-1,1.6-2.2,3.1-3.4,4.4
		c-1.2,1.3-2.9,2.5-5,3.7c-2.1,1.2-4.4,1.9-6.8,2.1c-2.4,0.2-5.4-0.1-8.8-1.1c-3.5-1-7.1-2.7-11-5.2c-5.4-3.5-9.9-7.3-13.4-11.5
		l7.1-11.1c3.2,4,7.2,7.5,12,10.6c2.9,1.8,5.3,3.1,7.4,3.9c2.1,0.7,3.7,0.8,5,0.3c1.2-0.5,2.2-1,2.7-1.6c0.6-0.5,1.2-1.4,1.9-2.5
		l1.8-2.8c-3.1-1.2-5.8-2.6-8.3-4.1c-7.4-4.8-11.8-10.6-13-17.4S256.1,863.8,261.3,855.7z M273.4,863.9c-3.7,5.7-5.2,10.2-4.7,13.4
		c0.5,3.2,2.7,6,6.4,8.5c2.5,1.6,5.1,2.9,7.8,4l15.2-23.7c2.4-3.8,0.8-7.5-4.8-11.1c-0.1,0-0.1-0.1-0.2-0.1
		c-3.3-2.1-6.5-2.5-9.7-1.2C280.3,854.9,277,858.3,273.4,863.9z"/>
	<path class="st0" d="M314,900.7c0.5-1.1,1.1-2.2,1.8-3.3s2-2.3,3.7-3.7c1.7-1.4,3.7-2.4,5.9-3s5.1-0.8,8.6-0.4
		c3.6,0.4,7.5,1.5,11.8,3.4c3,1.3,6.2,3,9.5,5c3.1-7.1,0.7-12.3-7.2-15.8c-6.3-2.7-12.1-4.2-17.6-4.3l4.8-11
		c6,0.4,12.1,1.9,18.4,4.6c7.9,3.5,13.1,8.1,15.6,14c2.4,5.9,2,12.7-1.4,20.3l-6.6,15c-2.2,5.1-6.1,8.7-11.5,10.7
		c-5.4,2-12.1,1.3-20.1-2.2c-8.2-3.6-13.5-8.1-15.7-13.5C311.6,911.4,311.6,906,314,900.7z M328.1,904.9c-2.6,6-0.4,10.5,6.6,13.5
		c0,0,0.1,0,0.1,0c6.7,2.9,11.2,1.5,13.7-4.1l3.1-7c-2.9-1.8-5.5-3.2-7.7-4.2C335.5,899.5,330.2,900.1,328.1,904.9z"/>
	<path class="st0" d="M376.7,949.1l10.9-53.8c9.7-2.7,18.9-3.2,27.4-1.5c0.1,0,0.2,0,0.2,0c6.5,1.3,11.6,3.9,15.3,7.7
		c8-1.4,15.5-1.5,22.4-0.1c8.1,1.6,13.9,5.1,17.5,10.4c3.6,5.3,4.6,11.8,3.1,19.5l-7.2,35.8l-14.3-2.9l7.4-36.7
		c0.8-3.8,0.4-6.9-1.1-9.2s-4.9-4-10.1-5.1c-4.1-0.8-8.3-1.2-12.5-1.1c1.3,2.2,1.4,6.1,0.3,11.6l-7.2,35.7l-14.3-2.9l7.5-37
		c0.7-3.6,0.3-6.6-1.2-8.8c-1.5-2.2-4.8-3.8-10-4.9c-3.4-0.7-6.8-1-10.1-1.1l-9.5,47L376.7,949.1z"/>
	<path class="st0" d="M490,937.6c-0.1-9.8,2-17.6,6.3-23.4s11.1-8.9,20.6-8.9c8.9-0.1,15.7,2.7,20.3,8.3c4.6,5.6,7,12.6,7.1,20.9
		c0,3.4,0,5.9-0.2,7.6l-39.4,0.4c0.4,5.3,2.1,8.8,4.8,10.5c2.8,1.8,6.4,2.6,10.8,2.6c7.1-0.1,14-1.7,20.6-4.9l0.1,11.8
		c-6.7,3.7-14.3,5.6-22.8,5.7c-2.7,0-5.2-0.2-7.6-0.6s-4.9-1.3-7.4-2.7c-2.6-1.4-4.8-3.1-6.6-5.2c-1.9-2.1-3.4-5.1-4.6-8.8
		C490.7,946.9,490.1,942.6,490,937.6z M504.6,932.2l24.5-0.2c-0.4-4.2-1.7-7.7-3.8-10.5c-2.1-2.8-5-4.3-8.6-4.2
		c-3.6,0-6.5,1.2-8.5,3.6C506.1,923.2,505,927,504.6,932.2z"/>
	<path class="st0" d="M567.2,964.5l-14.5-82.3l14.4-2.5l7.8,44.4l16.3-25.5l19.1-3.4l-21.4,31.2l34.7,28.1l-18.2,3.2l-24-20.1
		l-3.3,4.7l3.5,19.6L567.2,964.5z"/>
	<path class="st0" d="M619.6,883l-4-12.8l14.3-4.4l4,12.8L619.6,883z M640.3,948.9l-18-58l14-4.3l18,58L640.3,948.9z"/>
	<path class="st0" d="M652,894.8l-4.9-11.5l9.4-4l-7-16.6L663,857l7,16.6l13.2-5.6l4.9,11.5l-13.2,5.6l11.7,27.6
		c1,2.4,2.2,3.8,3.6,4.2c1.4,0.4,3.3,0.1,5.9-1c2.4-1,4.4-2.3,5.9-3.9l4.7,11.1c-2.2,2.2-4.8,4-7.9,5.3c-0.1,0-0.2,0.1-0.3,0.1
		c-5.5,2.4-10.6,2.6-15.2,0.6c-4.6-1.9-8.1-5.8-10.5-11.6l-11.4-26.8L652,894.8z"/>
	<path class="st0" d="M729.2,912.2l-6.6-11.6l12.7-7.2L742,905L729.2,912.2z"/>
	<path class="st0" d="M744.9,868c-6-8.2-8.6-15.9-7.8-23.2c0.8-7.3,4.9-13.6,12.4-19.1c4.8-3.5,10.2-6,16.2-7.6l7.1,9.7
		c-5,1.3-9.7,3.5-13.9,6.6c-4.5,3.3-7.1,6.8-7.8,10.5c-0.7,3.7,1.2,8.5,5.5,14.5c4.3,5.9,8.4,9.1,12.1,9.6c3.7,0.5,7.8-0.9,12.4-4.2
		c4.1-3,7.5-6.8,10.4-11.4l7.1,9.7c-3.2,5.3-7.2,9.7-12,13.2c-7.5,5.5-14.8,7.5-22,6C757.5,880.9,750.9,876.1,744.9,868z"/>
	<path class="st0" d="M812.6,844.7c-7.3-0.4-14.5-4.1-21.6-11.3s-10.7-14.4-11-21.7c-0.3-7.3,2.9-14.2,9.5-20.7s13.5-9.6,20.9-9.2
		c7.3,0.4,14.5,4.1,21.6,11.3s10.7,14.4,11,21.7c0.3,7.3-2.9,14.2-9.5,20.7C826.8,842,819.9,845.1,812.6,844.7z M793.2,809.8
		c0.2,3.5,3,8,8.3,13.4c5.3,5.4,9.7,8.2,13.2,8.4c3.5,0.3,7-1.3,10.4-4.7c3.4-3.4,5-6.8,4.8-10.3c-0.2-3.5-3-7.9-8.3-13.3
		c-5.3-5.4-9.7-8.2-13.2-8.5c-3.5-0.3-7,1.3-10.4,4.6C794.6,802.8,793,806.3,793.2,809.8z"/>
	<path class="st0" d="M869.8,796.9l-46-29.9c1.1-10,4-18.7,8.7-26c0-0.1,0.1-0.1,0.1-0.2c3.6-5.5,7.8-9.3,12.8-11.4
		c1.6-8,4.3-14.9,8.2-20.9c4.5-6.9,9.8-11,16.1-12.5c6.2-1.4,12.7,0,19.3,4.3l30.6,19.9l-8,12.3l-31.4-20.4c-3.3-2.1-6.2-2.9-9-2.3
		s-5.5,3.1-8.4,7.6c-2.3,3.5-4.1,7.3-5.6,11.2c2.6-0.4,6.2,0.9,10.9,4l30.6,19.8l-8,12.3L859,744.2c-3.1-2-6-2.7-8.6-2.1
		c-2.6,0.6-5.3,3.1-8.2,7.5c-1.9,2.9-3.5,5.9-4.7,9l40.3,26.1L869.8,796.9z"/>
</g>
</svg>
